<svg width="1280" height="700" viewBox="0 0 1280 700" fill="none" xmlns="http://www.w3.org/2000/svg">
<g clip-path="url(#clip0_932_3377)">
<rect width="1280" height="700" fill="white"/>
<path d="M443.918 171H446.551V164.864H450.131C454.179 164.864 456.182 162.418 456.182 159.196C456.182 155.983 454.196 153.545 450.139 153.545H443.918V171ZM446.551 162.631V155.804H449.858C452.466 155.804 453.531 157.219 453.531 159.196C453.531 161.173 452.466 162.631 449.892 162.631H446.551ZM462.757 171.29C464.922 171.29 466.141 170.19 466.626 169.21H466.729V171H469.217V162.307C469.217 158.497 466.217 157.739 464.138 157.739C461.768 157.739 459.587 158.693 458.734 161.08L461.129 161.625C461.504 160.696 462.459 159.801 464.172 159.801C465.817 159.801 466.661 160.662 466.661 162.145V162.205C466.661 163.134 465.706 163.116 463.354 163.389C460.874 163.679 458.334 164.327 458.334 167.301C458.334 169.875 460.268 171.29 462.757 171.29ZM463.311 169.244C461.871 169.244 460.831 168.597 460.831 167.335C460.831 165.972 462.041 165.486 463.516 165.29C464.342 165.179 466.303 164.957 466.669 164.591V166.278C466.669 167.83 465.433 169.244 463.311 169.244ZM471.333 174.776H473.856V171H482.984V174.776H485.472V168.793H483.461V157.909H474.563L474.154 162.793C473.881 166.091 473.481 167.812 472.398 168.793H471.333V174.776ZM475.126 168.793C475.995 167.574 476.319 165.545 476.575 162.793L476.847 160.091H480.972V168.793H475.126ZM490.46 162.409V157.909H487.963V171H493.682C496.886 171 498.676 169.142 498.676 166.679C498.676 164.165 496.886 162.409 493.682 162.409H490.46ZM500.534 171H503.082V157.909H500.534V171ZM490.46 164.608H493.682C495.148 164.608 496.196 165.494 496.196 166.756C496.196 167.949 495.148 168.801 493.682 168.801H490.46V164.608ZM512.854 171H519.109C521.973 171 523.652 169.551 523.652 167.472C523.652 165.528 522.161 164.335 520.413 164.131C522.024 163.824 523.089 162.938 523.089 161.403C523.089 159.256 521.232 157.909 518.283 157.909H512.854V171ZM515.249 168.869V165.23H519.109C520.371 165.23 521.129 165.972 521.129 167.19C521.129 168.23 520.371 168.869 519.109 168.869H515.249ZM515.249 163.364V160.065H518.283C519.732 160.065 520.609 160.67 520.609 161.676C520.609 162.724 519.74 163.364 518.308 163.364H515.249ZM528.945 167.429V157.909H526.447V171H529.217L534.962 161.472V171H537.459V157.909H534.714L528.945 167.429ZM539.607 174.776H542.129V171H551.257V174.776H553.746V168.793H551.734V157.909H542.837L542.428 162.793C542.155 166.091 541.754 167.812 540.672 168.793H539.607V174.776ZM543.399 168.793C544.268 167.574 544.592 165.545 544.848 162.793L545.121 160.091H549.246V168.793H543.399ZM561.879 171.264C564.734 171.264 566.754 169.858 567.333 167.727L564.921 167.293C564.461 168.528 563.353 169.159 561.904 169.159C559.722 169.159 558.256 167.744 558.188 165.222H567.495V164.318C567.495 159.588 564.665 157.739 561.7 157.739C558.052 157.739 555.648 160.517 555.648 164.54C555.648 168.605 558.018 171.264 561.879 171.264ZM558.197 163.312C558.299 161.455 559.646 159.844 561.717 159.844C563.694 159.844 564.989 161.31 564.998 163.312H558.197ZM569.168 160.108H573.455V171H575.943V160.108H580.213V157.909H569.168V160.108ZM585.406 162.409V157.909H582.908V171H588.627C591.832 171 593.621 169.142 593.621 166.679C593.621 164.165 591.832 162.409 588.627 162.409H585.406ZM585.406 164.608H588.627C590.093 164.608 591.141 165.494 591.141 166.756C591.141 167.949 590.093 168.801 588.627 168.801H585.406V164.608ZM599.692 153.545H596.888L597.109 165.98H599.47L599.692 153.545ZM598.286 171.162C599.214 171.162 599.99 170.403 599.99 169.457C599.99 168.528 599.214 167.761 598.286 167.761C597.348 167.761 596.581 168.528 596.581 169.457C596.581 170.403 597.348 171.162 598.286 171.162Z" fill="black"/>
<path fill-rule="evenodd" clip-rule="evenodd" d="M461 108C471.493 108 480 99.4934 480 89C480 78.5066 471.493 70 461 70C450.507 70 442 78.5066 442 89C442 99.4934 450.507 108 461 108Z" fill="#2BE080"/>
<path fill-rule="evenodd" clip-rule="evenodd" d="M466.866 92C466.507 92 466.18 92.1973 465.973 92.4915C464.897 94.0194 463.137 95 461.185 95C457.984 95 455.3 92.3634 455.3 89C455.3 85.6366 457.984 83 461.185 83C463.137 83 464.897 83.9806 465.973 85.5085C466.18 85.8027 466.507 86 466.866 86H470.342C471.004 86 471.483 85.3664 471.23 84.7547C469.586 80.7873 465.707 78 461.185 78C455.173 78 450.3 82.9249 450.3 89C450.3 95.0751 455.173 100 461.185 100C465.707 100 469.586 97.2127 471.23 93.2453C471.483 92.6336 471.004 92 470.342 92H466.866Z" fill="white"/>
<rect y="217" width="1280" height="156" fill="white"/>
<rect x="442" y="239" width="396" height="46" rx="8" fill="#F9F9F9"/>
<rect x="442" y="327" width="396" height="46" rx="8" fill="#F9F9F9"/>
<path d="M442.881 227H447.327V226.219H443.761V223.747H447.043V222.966H443.761V220.509H447.27V219.727H442.881V227ZM451.869 223.491H448.687V224.273H451.869V223.491ZM453.343 227H454.181V223.591C454.181 222.792 454.764 222.227 455.417 222.227C456.053 222.227 456.497 222.643 456.497 223.264V227H457.349V223.449C457.349 222.746 457.789 222.227 458.556 222.227C459.153 222.227 459.664 222.543 459.664 223.349V227H460.502V223.349C460.502 222.067 459.813 221.474 458.84 221.474C458.059 221.474 457.487 221.833 457.207 222.398H457.15C456.88 221.815 456.404 221.474 455.687 221.474C454.977 221.474 454.451 221.815 454.224 222.398H454.153V221.545H453.343V227ZM463.64 227.128C464.591 227.128 465.089 226.616 465.259 226.261H465.302V227H466.14V223.406C466.14 221.673 464.819 221.474 464.123 221.474C463.299 221.474 462.361 221.759 461.935 222.753L462.731 223.037C462.915 222.639 463.352 222.213 464.151 222.213C464.922 222.213 465.302 222.621 465.302 223.321V223.349C465.302 223.754 464.89 223.719 463.895 223.847C462.883 223.978 461.779 224.202 461.779 225.452C461.779 226.517 462.603 227.128 463.64 227.128ZM463.768 226.375C463.1 226.375 462.617 226.077 462.617 225.494C462.617 224.855 463.199 224.656 463.853 224.571C464.208 224.528 465.16 224.429 465.302 224.259V225.026C465.302 225.707 464.762 226.375 463.768 226.375ZM467.669 227H468.507V221.545H467.669V227ZM468.096 220.636C468.422 220.636 468.692 220.381 468.692 220.068C468.692 219.756 468.422 219.5 468.096 219.5C467.769 219.5 467.499 219.756 467.499 220.068C467.499 220.381 467.769 220.636 468.096 220.636ZM470.881 219.727H470.042V227H470.881V219.727Z" fill="#A0A0A0"/>
<path d="M457.928 269.659V259.909H459.276V261.059H459.391C459.471 260.911 459.587 260.74 459.738 260.546C459.888 260.352 460.098 260.183 460.365 260.038C460.633 259.891 460.987 259.817 461.427 259.817C462 259.817 462.511 259.961 462.96 260.251C463.409 260.54 463.762 260.957 464.017 261.502C464.276 262.047 464.405 262.702 464.405 263.468C464.405 264.235 464.277 264.892 464.022 265.44C463.766 265.984 463.415 266.404 462.969 266.7C462.523 266.992 462.013 267.138 461.441 267.138C461.01 267.138 460.658 267.066 460.384 266.922C460.113 266.777 459.901 266.608 459.747 266.414C459.593 266.22 459.474 266.047 459.391 265.897H459.308V269.659H457.928ZM459.281 263.455C459.281 263.953 459.353 264.39 459.498 264.766C459.642 265.141 459.851 265.435 460.125 265.647C460.399 265.857 460.735 265.961 461.132 265.961C461.544 265.961 461.889 265.852 462.166 265.634C462.443 265.412 462.652 265.112 462.794 264.733C462.938 264.355 463.011 263.929 463.011 263.455C463.011 262.987 462.94 262.567 462.798 262.194C462.66 261.822 462.451 261.528 462.17 261.312C461.893 261.097 461.547 260.989 461.132 260.989C460.732 260.989 460.393 261.092 460.116 261.299C459.842 261.505 459.634 261.793 459.493 262.162C459.351 262.531 459.281 262.962 459.281 263.455ZM468.938 267.143C468.273 267.143 467.693 266.991 467.198 266.686C466.702 266.381 466.318 265.955 466.044 265.407C465.77 264.859 465.633 264.219 465.633 263.487C465.633 262.751 465.77 262.108 466.044 261.557C466.318 261.006 466.702 260.578 467.198 260.274C467.693 259.969 468.273 259.817 468.938 259.817C469.603 259.817 470.183 259.969 470.679 260.274C471.174 260.578 471.559 261.006 471.833 261.557C472.107 262.108 472.244 262.751 472.244 263.487C472.244 264.219 472.107 264.859 471.833 265.407C471.559 265.955 471.174 266.381 470.679 266.686C470.183 266.991 469.603 267.143 468.938 267.143ZM468.943 265.984C469.374 265.984 469.731 265.871 470.014 265.643C470.297 265.415 470.506 265.112 470.642 264.733C470.78 264.355 470.849 263.938 470.849 263.482C470.849 263.03 470.78 262.614 470.642 262.236C470.506 261.854 470.297 261.548 470.014 261.317C469.731 261.086 469.374 260.971 468.943 260.971C468.509 260.971 468.149 261.086 467.863 261.317C467.579 261.548 467.369 261.854 467.23 262.236C467.095 262.614 467.027 263.03 467.027 263.482C467.027 263.938 467.095 264.355 467.23 264.733C467.369 265.112 467.579 265.415 467.863 265.643C468.149 265.871 468.509 265.984 468.943 265.984ZM476.771 267.143C476.085 267.143 475.494 266.988 474.998 266.677C474.506 266.363 474.128 265.931 473.863 265.38C473.598 264.829 473.466 264.198 473.466 263.487C473.466 262.767 473.601 262.131 473.872 261.58C474.143 261.026 474.525 260.594 475.017 260.283C475.509 259.972 476.09 259.817 476.757 259.817C477.296 259.817 477.776 259.917 478.198 260.117C478.619 260.314 478.959 260.591 479.218 260.948C479.48 261.305 479.635 261.722 479.684 262.199H478.341C478.267 261.866 478.098 261.58 477.833 261.34C477.571 261.1 477.221 260.98 476.78 260.98C476.396 260.98 476.059 261.082 475.769 261.285C475.483 261.485 475.26 261.771 475.1 262.143C474.94 262.513 474.86 262.95 474.86 263.455C474.86 263.972 474.938 264.418 475.095 264.793C475.252 265.169 475.474 265.46 475.76 265.666C476.05 265.872 476.39 265.975 476.78 265.975C477.042 265.975 477.279 265.927 477.491 265.832C477.707 265.734 477.887 265.594 478.032 265.412C478.179 265.23 478.282 265.012 478.341 264.756H479.684C479.635 265.215 479.486 265.624 479.236 265.984C478.987 266.344 478.653 266.628 478.235 266.834C477.819 267.04 477.331 267.143 476.771 267.143ZM482.541 262.79V267H481.16V257.545H482.522V261.063H482.61C482.776 260.682 483.03 260.378 483.372 260.154C483.713 259.929 484.16 259.817 484.71 259.817C485.197 259.817 485.621 259.917 485.985 260.117C486.351 260.317 486.634 260.615 486.834 261.012C487.037 261.406 487.139 261.899 487.139 262.49V267H485.758V262.656C485.758 262.136 485.624 261.733 485.357 261.446C485.089 261.157 484.717 261.012 484.24 261.012C483.913 261.012 483.621 261.082 483.362 261.22C483.107 261.359 482.905 261.562 482.758 261.83C482.613 262.094 482.541 262.414 482.541 262.79ZM492.291 259.909V261.017H488.417V259.909H492.291ZM489.456 258.21H490.836V264.918C490.836 265.186 490.876 265.387 490.956 265.523C491.037 265.655 491.14 265.746 491.266 265.795C491.395 265.841 491.535 265.864 491.686 265.864C491.797 265.864 491.894 265.857 491.977 265.841C492.06 265.826 492.124 265.814 492.171 265.804L492.42 266.945C492.34 266.975 492.226 267.006 492.078 267.037C491.931 267.071 491.746 267.089 491.524 267.092C491.161 267.098 490.823 267.034 490.509 266.898C490.195 266.763 489.941 266.554 489.747 266.271C489.553 265.987 489.456 265.632 489.456 265.204V258.21ZM495.881 267.157C495.432 267.157 495.026 267.074 494.662 266.908C494.299 266.738 494.011 266.494 493.799 266.174C493.59 265.854 493.485 265.461 493.485 264.996C493.485 264.596 493.562 264.267 493.716 264.009C493.87 263.75 494.078 263.545 494.339 263.395C494.601 263.244 494.893 263.13 495.216 263.053C495.54 262.976 495.869 262.917 496.204 262.877C496.629 262.828 496.974 262.788 497.238 262.757C497.503 262.724 497.695 262.67 497.815 262.596C497.935 262.522 497.995 262.402 497.995 262.236V262.203C497.995 261.8 497.882 261.488 497.654 261.266C497.429 261.045 497.094 260.934 496.647 260.934C496.183 260.934 495.816 261.037 495.549 261.243C495.284 261.446 495.101 261.673 494.999 261.922L493.702 261.626C493.856 261.196 494.081 260.848 494.376 260.583C494.675 260.315 495.018 260.121 495.406 260.001C495.793 259.878 496.201 259.817 496.629 259.817C496.912 259.817 497.212 259.851 497.529 259.918C497.849 259.983 498.148 260.103 498.425 260.278C498.705 260.454 498.934 260.705 499.113 261.031C499.291 261.354 499.38 261.774 499.38 262.291V267H498.032V266.031H497.977C497.888 266.209 497.754 266.384 497.575 266.557C497.397 266.729 497.168 266.872 496.888 266.986C496.607 267.1 496.272 267.157 495.881 267.157ZM496.181 266.049C496.563 266.049 496.889 265.974 497.16 265.823C497.434 265.672 497.642 265.475 497.783 265.232C497.928 264.986 498 264.723 498 264.442V263.528C497.951 263.578 497.855 263.624 497.714 263.667C497.575 263.707 497.417 263.742 497.238 263.773C497.06 263.801 496.886 263.827 496.717 263.852C496.547 263.873 496.406 263.892 496.292 263.907C496.024 263.941 495.78 263.998 495.558 264.078C495.339 264.158 495.164 264.273 495.032 264.424C494.902 264.572 494.838 264.769 494.838 265.015C494.838 265.357 494.964 265.615 495.216 265.79C495.469 265.963 495.79 266.049 496.181 266.049ZM506.911 269.571C505.957 269.571 505.111 269.441 504.372 269.179C503.636 268.92 503.016 268.539 502.512 268.034C502.007 267.532 501.624 266.917 501.362 266.188C501.1 265.458 500.97 264.626 500.97 263.69C500.97 262.779 501.102 261.96 501.367 261.234C501.631 260.508 502.016 259.889 502.521 259.378C503.029 258.864 503.646 258.472 504.372 258.201C505.098 257.93 505.923 257.795 506.846 257.795C507.73 257.795 508.508 257.933 509.182 258.21C509.856 258.487 510.423 258.867 510.881 259.35C511.343 259.834 511.691 260.388 511.925 261.012C512.158 261.637 512.275 262.297 512.275 262.993C512.275 263.479 512.245 263.955 512.183 264.419C512.122 264.881 512.008 265.3 511.841 265.675C511.678 266.047 511.441 266.346 511.131 266.571C510.823 266.792 510.423 266.908 509.93 266.917C509.669 266.926 509.415 266.895 509.169 266.825C508.922 266.754 508.713 266.64 508.541 266.483C508.368 266.323 508.264 266.12 508.227 265.874H508.171C508.097 266.055 507.974 266.224 507.802 266.381C507.63 266.535 507.41 266.658 507.142 266.751C506.877 266.84 506.569 266.877 506.219 266.862C505.831 266.846 505.481 266.758 505.171 266.598C504.86 266.438 504.594 266.217 504.372 265.934C504.153 265.65 503.986 265.315 503.869 264.927C503.752 264.539 503.693 264.109 503.693 263.635C503.693 263.179 503.76 262.771 503.892 262.411C504.024 262.048 504.204 261.736 504.432 261.474C504.663 261.209 504.927 261 505.226 260.846C505.525 260.692 505.84 260.595 506.172 260.555C506.496 260.518 506.793 260.528 507.063 260.583C507.334 260.638 507.559 260.723 507.737 260.837C507.919 260.951 508.033 261.076 508.079 261.211H508.139V260.694H509.275V264.978C509.275 265.221 509.338 265.427 509.464 265.597C509.593 265.766 509.776 265.85 510.013 265.85C510.293 265.85 510.512 265.747 510.669 265.541C510.829 265.335 510.941 265.018 511.006 264.59C511.074 264.162 511.107 263.615 511.107 262.947C511.107 262.479 511.044 262.039 510.918 261.626C510.795 261.211 510.612 260.835 510.369 260.5C510.129 260.161 509.833 259.871 509.482 259.627C509.132 259.384 508.731 259.197 508.282 259.064C507.836 258.932 507.342 258.866 506.8 258.866C506.065 258.866 505.411 258.98 504.838 259.207C504.266 259.432 503.783 259.757 503.389 260.181C502.998 260.606 502.701 261.116 502.498 261.71C502.298 262.3 502.198 262.964 502.198 263.699C502.198 264.466 502.301 265.146 502.507 265.74C502.713 266.331 503.018 266.829 503.421 267.235C503.824 267.642 504.323 267.949 504.917 268.159C505.511 268.371 506.195 268.477 506.971 268.477C507.316 268.477 507.654 268.446 507.987 268.385C508.319 268.326 508.615 268.259 508.873 268.182C509.135 268.108 509.33 268.048 509.459 268.002L509.782 269.013C509.592 269.102 509.338 269.19 509.021 269.276C508.707 269.362 508.365 269.433 507.996 269.488C507.63 269.544 507.268 269.571 506.911 269.571ZM506.486 265.73C506.886 265.73 507.208 265.65 507.451 265.49C507.697 265.33 507.874 265.092 507.982 264.775C508.093 264.455 508.148 264.055 508.148 263.575C508.145 263.107 508.085 262.734 507.968 262.457C507.854 262.177 507.676 261.977 507.433 261.857C507.193 261.734 506.883 261.673 506.505 261.673C506.157 261.673 505.86 261.757 505.614 261.926C505.371 262.096 505.184 262.325 505.055 262.614C504.929 262.904 504.864 263.225 504.861 263.579C504.864 263.952 504.917 264.302 505.018 264.632C505.123 264.958 505.292 265.223 505.526 265.426C505.763 265.629 506.083 265.73 506.486 265.73ZM514.672 269.659C514.466 269.659 514.279 269.642 514.109 269.608C513.94 269.578 513.814 269.544 513.731 269.507L514.063 268.376C514.315 268.443 514.54 268.473 514.737 268.463C514.934 268.454 515.108 268.38 515.259 268.242C515.413 268.103 515.548 267.877 515.665 267.563L515.836 267.092L513.241 259.909H514.719L516.514 265.412H516.588L518.384 259.909H519.866L516.944 267.946C516.808 268.316 516.636 268.628 516.427 268.884C516.217 269.142 515.968 269.336 515.679 269.465C515.39 269.594 515.054 269.659 514.672 269.659ZM523.024 267.157C522.574 267.157 522.168 267.074 521.805 266.908C521.442 266.738 521.154 266.494 520.942 266.174C520.732 265.854 520.628 265.461 520.628 264.996C520.628 264.596 520.705 264.267 520.859 264.009C521.012 263.75 521.22 263.545 521.482 263.395C521.743 263.244 522.036 263.13 522.359 263.053C522.682 262.976 523.011 262.917 523.347 262.877C523.772 262.828 524.116 262.788 524.381 262.757C524.646 262.724 524.838 262.67 524.958 262.596C525.078 262.522 525.138 262.402 525.138 262.236V262.203C525.138 261.8 525.024 261.488 524.796 261.266C524.572 261.045 524.236 260.934 523.79 260.934C523.325 260.934 522.959 261.037 522.691 261.243C522.427 261.446 522.244 261.673 522.142 261.922L520.845 261.626C520.999 261.196 521.223 260.848 521.519 260.583C521.817 260.315 522.16 260.121 522.548 260.001C522.936 259.878 523.344 259.817 523.772 259.817C524.055 259.817 524.355 259.851 524.672 259.918C524.992 259.983 525.29 260.103 525.567 260.278C525.847 260.454 526.077 260.705 526.255 261.031C526.434 261.354 526.523 261.774 526.523 262.291V267H525.175V266.031H525.12C525.03 266.209 524.896 266.384 524.718 266.557C524.539 266.729 524.31 266.872 524.03 266.986C523.75 267.1 523.415 267.157 523.024 267.157ZM523.324 266.049C523.705 266.049 524.032 265.974 524.302 265.823C524.576 265.672 524.784 265.475 524.926 265.232C525.07 264.986 525.143 264.723 525.143 264.442V263.528C525.093 263.578 524.998 263.624 524.856 263.667C524.718 263.707 524.559 263.742 524.381 263.773C524.202 263.801 524.029 263.827 523.859 263.852C523.69 263.873 523.548 263.892 523.435 263.907C523.167 263.941 522.922 263.998 522.701 264.078C522.482 264.158 522.307 264.273 522.174 264.424C522.045 264.572 521.98 264.769 521.98 265.015C521.98 265.357 522.107 265.615 522.359 265.79C522.611 265.963 522.933 266.049 523.324 266.049ZM529.742 262.79V267H528.362V259.909H529.686V261.063H529.774C529.937 260.688 530.193 260.386 530.54 260.158C530.891 259.931 531.333 259.817 531.865 259.817C532.349 259.817 532.772 259.918 533.135 260.121C533.498 260.321 533.78 260.62 533.98 261.017C534.18 261.414 534.28 261.905 534.28 262.49V267H532.9V262.656C532.9 262.142 532.766 261.74 532.498 261.451C532.23 261.159 531.862 261.012 531.395 261.012C531.074 261.012 530.79 261.082 530.54 261.22C530.294 261.359 530.099 261.562 529.954 261.83C529.813 262.094 529.742 262.414 529.742 262.79ZM538.786 267.138C538.213 267.138 537.702 266.992 537.253 266.7C536.807 266.404 536.456 265.984 536.2 265.44C535.948 264.892 535.822 264.235 535.822 263.468C535.822 262.702 535.949 262.047 536.205 261.502C536.463 260.957 536.817 260.54 537.267 260.251C537.716 259.961 538.225 259.817 538.795 259.817C539.235 259.817 539.589 259.891 539.857 260.038C540.127 260.183 540.337 260.352 540.484 260.546C540.635 260.74 540.752 260.911 540.835 261.059H540.918V257.545H542.299V267H540.951V265.897H540.835C540.752 266.047 540.632 266.22 540.475 266.414C540.321 266.608 540.109 266.777 539.838 266.922C539.567 267.066 539.216 267.138 538.786 267.138ZM539.09 265.961C539.487 265.961 539.823 265.857 540.097 265.647C540.374 265.435 540.583 265.141 540.724 264.766C540.869 264.39 540.941 263.953 540.941 263.455C540.941 262.962 540.871 262.531 540.729 262.162C540.587 261.793 540.38 261.505 540.106 261.299C539.832 261.092 539.493 260.989 539.09 260.989C538.675 260.989 538.328 261.097 538.051 261.312C537.775 261.528 537.565 261.822 537.424 262.194C537.285 262.567 537.216 262.987 537.216 263.455C537.216 263.929 537.287 264.355 537.428 264.733C537.57 265.112 537.779 265.412 538.056 265.634C538.336 265.852 538.681 265.961 539.09 265.961ZM547.325 267.143C546.626 267.143 546.025 266.994 545.52 266.695C545.018 266.394 544.63 265.971 544.356 265.426C544.086 264.878 543.95 264.236 543.95 263.501C543.95 262.774 544.086 262.134 544.356 261.58C544.63 261.026 545.012 260.594 545.501 260.283C545.994 259.972 546.569 259.817 547.228 259.817C547.628 259.817 548.016 259.883 548.391 260.015C548.767 260.148 549.104 260.355 549.402 260.638C549.701 260.922 549.936 261.289 550.109 261.742C550.281 262.191 550.367 262.737 550.367 263.381V263.87H544.73V262.836H549.014C549.014 262.473 548.941 262.151 548.793 261.871C548.645 261.588 548.437 261.365 548.17 261.202C547.905 261.039 547.594 260.957 547.237 260.957C546.849 260.957 546.511 261.052 546.222 261.243C545.935 261.431 545.714 261.677 545.557 261.982C545.403 262.283 545.326 262.611 545.326 262.965V263.773C545.326 264.247 545.409 264.65 545.575 264.983C545.744 265.315 545.98 265.569 546.282 265.744C546.583 265.917 546.936 266.003 547.339 266.003C547.6 266.003 547.839 265.966 548.054 265.892C548.27 265.815 548.456 265.701 548.613 265.55C548.77 265.4 548.89 265.213 548.973 264.992L550.279 265.227C550.175 265.612 549.987 265.949 549.716 266.238C549.448 266.525 549.111 266.748 548.705 266.908C548.302 267.065 547.842 267.143 547.325 267.143ZM552.823 259.909L554.388 262.67L555.967 259.909H557.476L555.265 263.455L557.495 267H555.985L554.388 264.35L552.795 267H551.281L553.488 263.455L551.309 259.909H552.823ZM559.803 267.088C559.551 267.088 559.334 266.998 559.152 266.82C558.971 266.638 558.88 266.42 558.88 266.164C558.88 265.912 558.971 265.697 559.152 265.518C559.334 265.337 559.551 265.246 559.803 265.246C560.056 265.246 560.273 265.337 560.454 265.518C560.636 265.697 560.726 265.912 560.726 266.164C560.726 266.334 560.683 266.489 560.597 266.631C560.514 266.769 560.403 266.88 560.265 266.963C560.126 267.046 559.972 267.088 559.803 267.088ZM562.575 267V259.909H563.91V261.036H563.983C564.113 260.654 564.34 260.354 564.667 260.135C564.996 259.914 565.368 259.803 565.784 259.803C565.87 259.803 565.972 259.806 566.089 259.812C566.209 259.818 566.302 259.826 566.37 259.835V261.156C566.315 261.14 566.216 261.123 566.075 261.105C565.933 261.083 565.792 261.072 565.65 261.072C565.324 261.072 565.033 261.142 564.777 261.28C564.525 261.416 564.325 261.605 564.177 261.848C564.03 262.088 563.956 262.362 563.956 262.67V267H562.575ZM572.056 264.059V259.909H573.441V267H572.084V265.772H572.01C571.847 266.151 571.586 266.466 571.225 266.718C570.868 266.968 570.424 267.092 569.891 267.092C569.436 267.092 569.033 266.992 568.682 266.792C568.334 266.589 568.06 266.289 567.86 265.892C567.663 265.495 567.565 265.004 567.565 264.419V259.909H568.945V264.253C568.945 264.736 569.079 265.121 569.347 265.407C569.614 265.694 569.962 265.837 570.39 265.837C570.648 265.837 570.905 265.772 571.161 265.643C571.419 265.513 571.633 265.318 571.803 265.056C571.975 264.795 572.06 264.462 572.056 264.059ZM576.953 254.499V270.047H576.03V254.499H576.953Z" fill="black"/>
<path d="M448.321 307.727H442.895V315H443.776V308.509H447.44V315H448.321V307.727ZM451.589 315.128C452.541 315.128 453.038 314.616 453.208 314.261H453.251V315H454.089V311.406C454.089 309.673 452.768 309.474 452.072 309.474C451.248 309.474 450.311 309.759 449.884 310.753L450.68 311.037C450.865 310.639 451.301 310.213 452.1 310.213C452.871 310.213 453.251 310.621 453.251 311.321V311.349C453.251 311.754 452.839 311.719 451.845 311.847C450.833 311.978 449.728 312.202 449.728 313.452C449.728 314.517 450.552 315.128 451.589 315.128ZM451.717 314.375C451.049 314.375 450.566 314.077 450.566 313.494C450.566 312.855 451.149 312.656 451.802 312.571C452.157 312.528 453.109 312.429 453.251 312.259V313.026C453.251 313.707 452.711 314.375 451.717 314.375ZM455.619 317.045H456.457V314.162H456.528C456.712 314.46 457.067 315.114 458.119 315.114C459.482 315.114 460.434 314.02 460.434 312.287C460.434 310.568 459.482 309.474 458.104 309.474C457.039 309.474 456.712 310.128 456.528 310.412H456.428V309.545H455.619V317.045ZM456.442 312.273C456.442 311.051 456.982 310.227 458.005 310.227C459.07 310.227 459.596 311.122 459.596 312.273C459.596 313.438 459.056 314.361 458.005 314.361C456.996 314.361 456.442 313.509 456.442 312.273ZM463.928 315.114C465.406 315.114 466.4 313.991 466.4 312.301C466.4 310.597 465.406 309.474 463.928 309.474C462.451 309.474 461.457 310.597 461.457 312.301C461.457 313.991 462.451 315.114 463.928 315.114ZM463.928 314.361C462.806 314.361 462.295 313.395 462.295 312.301C462.295 311.207 462.806 310.227 463.928 310.227C465.05 310.227 465.562 311.207 465.562 312.301C465.562 313.395 465.05 314.361 463.928 314.361ZM467.196 315H467.48C468.688 315 469.036 314.062 469.114 312.273L469.199 310.327H471.202V315H472.04V309.545H468.404L468.304 311.96C468.233 313.793 468.048 314.219 467.395 314.219H467.196V315ZM474.416 311.52V309.545H473.578V315H475.865C477.143 315 477.839 314.219 477.839 313.239C477.839 312.244 477.143 311.52 475.865 311.52H474.416ZM474.416 312.301H475.865C476.529 312.301 477.001 312.706 477.001 313.281C477.001 313.832 476.529 314.219 475.865 314.219H474.416V312.301Z" fill="#A0A0A0"/>
<rect x="442" y="552" width="396" height="45" rx="3" fill="#3456F3"/>
<path d="M619.365 579H623.267C625.634 579 626.703 577.822 626.703 576.261C626.703 574.685 625.599 573.795 624.59 573.74V573.641C625.525 573.402 626.305 572.766 626.305 571.493C626.305 569.987 625.261 568.818 623.093 568.818H619.365V579ZM620.901 577.683V574.421H623.173C624.406 574.421 625.176 575.217 625.176 576.186C625.176 577.041 624.595 577.683 623.118 577.683H620.901ZM620.901 573.223V570.126H622.999C624.217 570.126 624.799 570.767 624.799 571.612C624.799 572.597 623.993 573.223 622.959 573.223H620.901ZM631.622 579.154C633.775 579.154 635.182 577.578 635.182 575.217C635.182 572.84 633.775 571.264 631.622 571.264C629.469 571.264 628.062 572.84 628.062 575.217C628.062 577.578 629.469 579.154 631.622 579.154ZM631.627 577.906C630.22 577.906 629.564 576.678 629.564 575.212C629.564 573.75 630.22 572.507 631.627 572.507C633.024 572.507 633.68 573.75 633.68 575.212C633.68 576.678 633.024 577.906 631.627 577.906ZM638.298 576.917V571.364H636.841V579H638.457L641.808 573.442V579H643.264V571.364H641.664L638.298 576.917ZM641.027 568.778C641.027 569.281 640.749 569.723 640.053 569.723C639.347 569.723 639.083 569.276 639.083 568.778H637.865C637.865 569.897 638.715 570.668 640.053 570.668C641.4 570.668 642.25 569.897 642.25 568.778H641.027ZM644.316 572.646H646.817V579H648.268V572.646H650.759V571.364H644.316V572.646ZM653.788 576.917V571.364H652.331V579H653.947L657.298 573.442V579H658.755V571.364H657.154L653.788 576.917Z" fill="white"/>
<path d="M499.535 627H505.759V625.906H500.768V622.446H505.361V621.352H500.768V617.912H505.68V616.818H499.535V627ZM518.163 625.906H517.03V619.364H515.856V625.906H512.973V619.364H511.8V625.906H508.916V619.364H507.743V627H516.811V629.188H518.024L518.163 625.906ZM522.989 627.159C524.541 627.159 525.674 626.384 526.032 625.23L524.899 624.912C524.6 625.707 523.909 626.105 522.989 626.105C521.612 626.105 520.663 625.215 520.608 623.58H526.151V623.082C526.151 620.239 524.461 619.264 522.87 619.264C520.802 619.264 519.43 620.895 519.43 623.241C519.43 625.588 520.782 627.159 522.989 627.159ZM520.608 622.565C520.688 621.377 521.528 620.318 522.87 620.318C524.143 620.318 524.958 621.273 524.958 622.565H520.608ZM521.379 618.091C521.836 618.091 522.174 617.713 522.174 617.295C522.174 616.838 521.836 616.5 521.379 616.5C520.961 616.5 520.583 616.838 520.583 617.295C520.583 617.713 520.961 618.091 521.379 618.091ZM524.242 618.091C524.7 618.091 525.038 617.713 525.038 617.295C525.038 616.838 524.7 616.5 524.242 616.5C523.825 616.5 523.447 616.838 523.447 617.295C523.447 617.713 523.825 618.091 524.242 618.091ZM533.047 619.364H531.874V627H533.047V623.739H536.706V627H537.879V619.364H536.706V622.645H533.047V619.364ZM543.224 627.159C544.775 627.159 545.908 626.384 546.266 625.23L545.133 624.912C544.835 625.707 544.144 626.105 543.224 626.105C541.847 626.105 540.897 625.215 540.842 623.58H546.386V623.082C546.386 620.239 544.695 619.264 543.104 619.264C541.036 619.264 539.664 620.895 539.664 623.241C539.664 625.588 541.016 627.159 543.224 627.159ZM540.842 622.565C540.922 621.377 541.762 620.318 543.104 620.318C544.377 620.318 545.193 621.273 545.193 622.565H540.842ZM551.631 625.051C551.671 626.304 552.869 627.159 554.494 627.159C556.165 627.159 557.378 626.264 557.378 624.872C557.378 623.918 556.806 623.142 555.946 623.082V623.003C556.672 622.779 557.219 622.252 557.219 621.392C557.219 620.184 556.185 619.264 554.574 619.264C552.983 619.264 551.85 620.139 551.81 621.372H553.043C553.078 620.741 553.739 620.298 554.634 620.298C555.524 620.298 556.026 620.751 556.026 621.432C556.026 622.068 555.588 622.545 554.653 622.545H553.341V623.599H554.653C555.588 623.599 556.185 624.112 556.185 624.872C556.185 625.742 555.414 626.105 554.475 626.105C553.555 626.105 552.938 625.742 552.884 625.051H551.631ZM561.273 627.179C562.606 627.179 563.302 626.463 563.54 625.966H563.6V627H564.773V621.969C564.773 619.543 562.924 619.264 561.949 619.264C560.796 619.264 559.483 619.662 558.887 621.054L560 621.452C560.259 620.895 560.87 620.298 561.989 620.298C563.068 620.298 563.6 620.87 563.6 621.849V621.889C563.6 622.456 563.023 622.406 561.631 622.585C560.214 622.769 558.668 623.082 558.668 624.832C558.668 626.324 559.821 627.179 561.273 627.179ZM561.452 626.125C560.517 626.125 559.841 625.707 559.841 624.892C559.841 623.997 560.657 623.719 561.571 623.599C562.069 623.54 563.401 623.401 563.6 623.162V624.236C563.6 625.19 562.844 626.125 561.452 626.125ZM566.915 629.864H568.088V625.827H568.187C568.446 626.244 568.943 627.159 570.415 627.159C572.324 627.159 573.656 625.628 573.656 623.202C573.656 620.795 572.324 619.264 570.395 619.264C568.903 619.264 568.446 620.179 568.187 620.577H568.048V619.364H566.915V629.864ZM568.068 623.182C568.068 621.472 568.824 620.318 570.256 620.318C571.747 620.318 572.483 621.571 572.483 623.182C572.483 624.812 571.727 626.105 570.256 626.105C568.844 626.105 568.068 624.912 568.068 623.182ZM578.648 627.159C580.199 627.159 581.332 626.384 581.69 625.23L580.557 624.912C580.258 625.707 579.567 626.105 578.648 626.105C577.271 626.105 576.321 625.215 576.266 623.58H581.81V623.082C581.81 620.239 580.119 619.264 578.528 619.264C576.46 619.264 575.088 620.895 575.088 623.241C575.088 625.588 576.44 627.159 578.648 627.159ZM576.266 622.565C576.346 621.377 577.186 620.318 578.528 620.318C579.801 620.318 580.616 621.273 580.616 622.565H576.266ZM588.307 619.364H583.594V627H584.768V620.457H588.307V619.364ZM591.193 625.27V619.364H590.02V627H591.392L595.051 621.094V627H596.225V619.364H594.872L591.193 625.27ZM601.476 627.159C603.166 627.159 604.28 626.125 604.479 624.773H603.305C603.087 625.608 602.391 626.105 601.476 626.105C600.084 626.105 599.189 624.952 599.189 623.182C599.189 621.452 600.104 620.318 601.476 620.318C602.51 620.318 603.127 620.955 603.305 621.651H604.479C604.28 620.219 603.067 619.264 601.456 619.264C599.388 619.264 598.016 620.895 598.016 623.222C598.016 625.509 599.328 627.159 601.476 627.159ZM605.592 620.457H608.118V627H609.291V620.457H611.797V619.364H605.592V620.457ZM613.508 629.864H614.682V625.827H614.781C615.04 626.244 615.537 627.159 617.008 627.159C618.918 627.159 620.25 625.628 620.25 623.202C620.25 620.795 618.918 619.264 616.989 619.264C615.497 619.264 615.04 620.179 614.781 620.577H614.642V619.364H613.508V629.864ZM614.662 623.182C614.662 621.472 615.418 620.318 616.849 620.318C618.341 620.318 619.077 621.571 619.077 623.182C619.077 624.812 618.321 626.105 616.849 626.105C615.437 626.105 614.662 624.912 614.662 623.182ZM623.213 625.27V619.364H622.04V627H623.412L627.071 621.094V627H628.244V619.364H626.892L623.213 625.27ZM630.393 629.864H631.566V625.827H631.666C631.924 626.244 632.422 627.159 633.893 627.159C635.802 627.159 637.135 625.628 637.135 623.202C637.135 620.795 635.802 619.264 633.873 619.264C632.382 619.264 631.924 620.179 631.666 620.577H631.527V619.364H630.393V629.864ZM631.547 623.182C631.547 621.472 632.302 620.318 633.734 620.318C635.226 620.318 635.961 621.571 635.961 623.182C635.961 624.812 635.206 626.105 633.734 626.105C632.322 626.105 631.547 624.912 631.547 623.182ZM642.027 627.159C644.095 627.159 645.487 625.588 645.487 623.222C645.487 620.835 644.095 619.264 642.027 619.264C639.959 619.264 638.566 620.835 638.566 623.222C638.566 625.588 639.959 627.159 642.027 627.159ZM642.027 626.105C640.456 626.105 639.74 624.753 639.74 623.222C639.74 621.69 640.456 620.318 642.027 620.318C643.598 620.318 644.314 621.69 644.314 623.222C644.314 624.753 643.598 626.105 642.027 626.105ZM647.278 627H650.877C652.429 627 653.363 626.125 653.363 624.952C653.363 623.754 652.453 623.107 651.613 622.983C652.473 622.804 653.085 622.322 653.085 621.392C653.085 620.174 652.041 619.364 650.4 619.364H647.278V627ZM648.392 625.926V623.58H650.877C651.683 623.58 652.17 624.062 652.17 624.852C652.17 625.518 651.683 625.926 650.877 625.926H648.392ZM648.392 622.565V620.438H650.4C651.34 620.438 651.911 620.83 651.911 621.472C651.911 622.153 651.34 622.565 650.4 622.565H648.392ZM657.386 627.179C658.719 627.179 659.415 626.463 659.653 625.966H659.713V627H660.886V621.969C660.886 619.543 659.037 619.264 658.063 619.264C656.909 619.264 655.597 619.662 655 621.054L656.114 621.452C656.372 620.895 656.984 620.298 658.102 620.298C659.181 620.298 659.713 620.87 659.713 621.849V621.889C659.713 622.456 659.136 622.406 657.744 622.585C656.328 622.769 654.781 623.082 654.781 624.832C654.781 626.324 655.935 627.179 657.386 627.179ZM657.565 626.125C656.631 626.125 655.955 625.707 655.955 624.892C655.955 623.997 656.77 623.719 657.685 623.599C658.182 623.54 659.514 623.401 659.713 623.162V624.236C659.713 625.19 658.957 626.125 657.565 626.125ZM664.201 619.364H663.028V627H664.201V623.739H667.86V627H669.034V619.364H667.86V622.645H664.201V619.364ZM672.35 622.128V619.364H671.176V627H674.378C676.168 627 677.142 625.906 677.142 624.534C677.142 623.142 676.168 622.128 674.378 622.128H672.35ZM678.355 627H679.529V619.364H678.355V627ZM672.35 623.222H674.378C675.308 623.222 675.969 623.788 675.969 624.594C675.969 625.364 675.308 625.906 674.378 625.906H672.35V623.222ZM683.208 624.136H684.401V624.077C684.421 622.844 684.739 622.307 685.614 621.76C686.489 621.228 687.006 620.462 687.006 619.364C687.006 617.812 685.872 616.679 684.122 616.679C682.512 616.679 681.234 617.673 681.159 619.364H682.412C682.487 618.19 683.307 617.713 684.122 617.713C685.057 617.713 685.813 618.33 685.813 619.304C685.813 620.094 685.36 620.661 684.779 621.014C683.804 621.606 683.223 622.183 683.208 624.077V624.136ZM683.844 627.08C684.336 627.08 684.739 626.677 684.739 626.185C684.739 625.692 684.336 625.29 683.844 625.29C683.352 625.29 682.949 625.692 682.949 626.185C682.949 626.677 683.352 627.08 683.844 627.08Z" fill="#A0A0A0"/>
<path d="M695.539 627H696.772V623.281H698.999C701.37 623.281 702.439 621.839 702.439 620.04C702.439 618.24 701.37 616.818 698.979 616.818H695.539V627ZM696.772 622.188V617.912H698.939C700.595 617.912 701.226 618.817 701.226 620.04C701.226 621.263 700.595 622.188 698.959 622.188H696.772ZM707.386 627.159C708.937 627.159 710.071 626.384 710.429 625.23L709.295 624.912C708.997 625.707 708.306 626.105 707.386 626.105C706.009 626.105 705.059 625.215 705.005 623.58H710.548V623.082C710.548 620.239 708.858 619.264 707.267 619.264C705.198 619.264 703.826 620.895 703.826 623.241C703.826 625.588 705.179 627.159 707.386 627.159ZM705.005 622.565C705.084 621.377 705.924 620.318 707.267 620.318C708.539 620.318 709.355 621.273 709.355 622.565H705.005ZM717.046 619.364H712.333V627H713.506V620.457H717.046V619.364ZM719.932 625.27V619.364H718.758V627H720.131L723.79 621.094V627H724.963V619.364H723.611L719.932 625.27ZM730.214 627.159C731.905 627.159 733.018 626.125 733.217 624.773H732.044C731.825 625.608 731.129 626.105 730.214 626.105C728.822 626.105 727.927 624.952 727.927 623.182C727.927 621.452 728.842 620.318 730.214 620.318C731.248 620.318 731.865 620.955 732.044 621.651H733.217C733.018 620.219 731.805 619.264 730.194 619.264C728.126 619.264 726.754 620.895 726.754 623.222C726.754 625.509 728.066 627.159 730.214 627.159ZM734.331 620.457H736.856V627H738.03V620.457H740.535V619.364H734.331V620.457ZM742.247 629.864H743.42V625.827H743.519C743.778 626.244 744.275 627.159 745.747 627.159C747.656 627.159 748.988 625.628 748.988 623.202C748.988 620.795 747.656 619.264 745.727 619.264C744.235 619.264 743.778 620.179 743.519 620.577H743.38V619.364H742.247V629.864ZM743.4 623.182C743.4 621.472 744.156 620.318 745.588 620.318C747.079 620.318 747.815 621.571 747.815 623.182C747.815 624.812 747.059 626.105 745.588 626.105C744.176 626.105 743.4 624.912 743.4 623.182ZM753.025 627.179C754.358 627.179 755.054 626.463 755.292 625.966H755.352V627H756.525V621.969C756.525 619.543 754.676 619.264 753.701 619.264C752.548 619.264 751.235 619.662 750.639 621.054L751.752 621.452C752.011 620.895 752.622 620.298 753.741 620.298C754.82 620.298 755.352 620.87 755.352 621.849V621.889C755.352 622.456 754.775 622.406 753.383 622.585C751.966 622.769 750.42 623.082 750.42 624.832C750.42 626.324 751.573 627.179 753.025 627.179ZM753.204 626.125C752.269 626.125 751.593 625.707 751.593 624.892C751.593 623.997 752.409 623.719 753.323 623.599C753.821 623.54 755.153 623.401 755.352 623.162V624.236C755.352 625.19 754.596 626.125 753.204 626.125ZM764.672 619.364H763.499V625.906H759.84V619.364H758.667V627H764.672V629.466H765.846V625.906H764.672V619.364ZM768.727 625.27V619.364H767.553V627H768.926L772.585 621.094V627H773.758V619.364H772.406L768.727 625.27ZM780.501 627H781.614V619.364H778.472C776.827 619.364 775.827 620.224 775.827 621.631C775.827 622.68 776.354 623.425 777.274 623.739L775.41 627H776.682L778.452 623.898H780.501V627ZM780.501 622.804H778.333C777.503 622.804 777.001 622.362 777.001 621.631C777.001 620.89 777.557 620.438 778.472 620.438H780.501V622.804Z" fill="#3456F3"/>
</g>
<defs>
<clipPath id="clip0_932_3377">
<rect width="1280" height="700" fill="white"/>
</clipPath>
</defs>
</svg>
