<svg width="320" height="780" viewBox="0 0 320 780" fill="none" xmlns="http://www.w3.org/2000/svg">
<g clip-path="url(#clip0_932_4497)">
<rect width="320" height="780" fill="white"/>
<path d="M104.289 442C103.965 440.21 102.533 439.153 100.777 439.153C98.5442 439.153 96.9249 440.875 96.9249 443.636C96.9249 446.398 98.5442 448.119 100.777 448.119C102.533 448.119 103.965 447.062 104.289 445.273H103.232C102.976 446.483 101.936 447.131 100.777 447.131C99.1919 447.131 97.9476 445.903 97.9476 443.636C97.9476 441.369 99.1919 440.142 100.777 440.142C101.936 440.142 102.976 440.79 103.232 442H104.289ZM105.485 442.392H107.65V448H108.655V442.392H110.803V441.455H105.485V442.392ZM112.27 450.455H113.276V446.994H113.361C113.583 447.352 114.009 448.136 115.27 448.136C116.906 448.136 118.048 446.824 118.048 444.744C118.048 442.682 116.906 441.369 115.253 441.369C113.975 441.369 113.583 442.153 113.361 442.494H113.242V441.455H112.27V450.455ZM113.259 444.727C113.259 443.261 113.906 442.273 115.134 442.273C116.412 442.273 117.043 443.347 117.043 444.727C117.043 446.125 116.395 447.233 115.134 447.233C113.923 447.233 113.259 446.21 113.259 444.727ZM121.509 448.153C122.651 448.153 123.247 447.54 123.452 447.114H123.503V448H124.509V443.688C124.509 441.608 122.923 441.369 122.088 441.369C121.1 441.369 119.975 441.71 119.463 442.903L120.418 443.244C120.639 442.767 121.164 442.256 122.122 442.256C123.047 442.256 123.503 442.746 123.503 443.585V443.619C123.503 444.105 123.009 444.062 121.816 444.216C120.601 444.374 119.276 444.642 119.276 446.142C119.276 447.42 120.264 448.153 121.509 448.153ZM121.662 447.25C120.861 447.25 120.281 446.892 120.281 446.193C120.281 445.426 120.98 445.188 121.764 445.085C122.191 445.034 123.333 444.915 123.503 444.71V445.631C123.503 446.449 122.855 447.25 121.662 447.25ZM127.35 441.455H126.344V448H127.35V445.205H130.486V448H131.492V441.455H130.486V444.267H127.35V441.455ZM134.334 446.517V441.455H133.329V448H134.505L137.641 442.938V448H138.647V441.455H137.488L134.334 446.517ZM145.637 441.455H144.631V447.062H141.494V441.455H140.489V448H145.637V450.114H146.642V447.062H145.637V441.455ZM150.032 448.153C151.174 448.153 151.771 447.54 151.975 447.114H152.026V448H153.032V443.688C153.032 441.608 151.447 441.369 150.612 441.369C149.623 441.369 148.498 441.71 147.987 442.903L148.941 443.244C149.163 442.767 149.687 442.256 150.646 442.256C151.57 442.256 152.026 442.746 152.026 443.585V443.619C152.026 444.105 151.532 444.062 150.339 444.216C149.124 444.374 147.799 444.642 147.799 446.142C147.799 447.42 148.788 448.153 150.032 448.153ZM150.186 447.25C149.384 447.25 148.805 446.892 148.805 446.193C148.805 445.426 149.504 445.188 150.288 445.085C150.714 445.034 151.856 444.915 152.026 444.71V445.631C152.026 446.449 151.379 447.25 150.186 447.25ZM159.248 441.455H158.243V448H159.248V445.205H162.385V448H163.39V441.455H162.385V444.267H159.248V441.455ZM167.971 448.136C169.301 448.136 170.273 447.472 170.579 446.483L169.608 446.21C169.352 446.892 168.76 447.233 167.971 447.233C166.791 447.233 165.977 446.47 165.93 445.068H170.682V444.642C170.682 442.205 169.233 441.369 167.869 441.369C166.096 441.369 164.92 442.767 164.92 444.778C164.92 446.79 166.079 448.136 167.971 448.136ZM165.93 444.199C165.998 443.18 166.719 442.273 167.869 442.273C168.96 442.273 169.659 443.091 169.659 444.199H165.93ZM176.592 441.455H175.586V448H176.592V445.205H179.729V448H180.734V441.455H179.729V444.267H176.592V441.455ZM184.497 448.153C185.639 448.153 186.236 447.54 186.44 447.114H186.491V448H187.497V443.688C187.497 441.608 185.912 441.369 185.077 441.369C184.088 441.369 182.963 441.71 182.452 442.903L183.406 443.244C183.628 442.767 184.152 442.256 185.111 442.256C186.035 442.256 186.491 442.746 186.491 443.585V443.619C186.491 444.105 185.997 444.062 184.804 444.216C183.589 444.374 182.264 444.642 182.264 446.142C182.264 447.42 183.253 448.153 184.497 448.153ZM184.65 447.25C183.849 447.25 183.27 446.892 183.27 446.193C183.27 445.426 183.969 445.188 184.753 445.085C185.179 445.034 186.321 444.915 186.491 444.71V445.631C186.491 446.449 185.844 447.25 184.65 447.25ZM190.338 446.517V441.455H189.333V448H190.509L193.645 442.938V448H194.651V441.455H193.492L190.338 446.517ZM192.827 439.273C192.827 439.716 192.588 440.108 191.992 440.108C191.395 440.108 191.173 439.716 191.173 439.273H190.236C190.236 440.193 190.918 440.841 191.992 440.841C193.083 440.841 193.764 440.193 193.764 439.273H192.827ZM195.794 449.875H196.8V448H201.64V449.875H202.646V447.062H201.64V441.455H197.481L197.26 444.045C197.102 445.878 196.868 446.509 196.339 447.062H195.794V449.875ZM197.481 447.062C197.942 446.457 198.108 445.413 198.248 444.045L198.419 442.392H200.635V447.062H197.481ZM206.725 448.136C208.055 448.136 209.026 447.472 209.333 446.483L208.362 446.21C208.106 446.892 207.514 447.233 206.725 447.233C205.545 447.233 204.731 446.47 204.684 445.068H209.436V444.642C209.436 442.205 207.987 441.369 206.623 441.369C204.85 441.369 203.674 442.767 203.674 444.778C203.674 446.79 204.833 448.136 206.725 448.136ZM204.684 444.199C204.752 443.18 205.472 442.273 206.623 442.273C207.714 442.273 208.413 443.091 208.413 444.199H204.684ZM211.971 441.455H210.965V448H211.971V445.205H215.107V448H216.113V441.455H215.107V444.267H211.971V441.455ZM219.876 448.153C221.018 448.153 221.615 447.54 221.819 447.114H221.87V448H222.876V443.688C222.876 441.608 221.291 441.369 220.455 441.369C219.467 441.369 218.342 441.71 217.83 442.903L218.785 443.244C219.007 442.767 219.531 442.256 220.49 442.256C221.414 442.256 221.87 442.746 221.87 443.585V443.619C221.87 444.105 221.376 444.062 220.183 444.216C218.968 444.374 217.643 444.642 217.643 446.142C217.643 447.42 218.632 448.153 219.876 448.153ZM220.029 447.25C219.228 447.25 218.649 446.892 218.649 446.193C218.649 445.426 219.347 445.188 220.132 445.085C220.558 445.034 221.7 444.915 221.87 444.71V445.631C221.87 446.449 221.222 447.25 220.029 447.25Z" fill="black"/>
<path d="M88.331 395.068H115.717V407H122.422V395.068H130.376V388.818H122.422V348.818H113.899L88.331 389.273V395.068ZM115.717 388.818H95.9446V388.364L115.263 357.795H115.717V388.818ZM160 407.795C172.841 407.795 180.227 396.915 180.227 377.909C180.227 359.045 172.727 348.023 160 348.023C147.273 348.023 139.773 359.045 139.773 377.909C139.773 396.915 147.159 407.795 160 407.795ZM160 401.545C151.534 401.545 146.591 393.051 146.591 377.909C146.591 362.795 151.591 354.159 160 354.159C168.409 354.159 173.409 362.795 173.409 377.909C173.409 393.051 168.466 401.545 160 401.545ZM189.659 395.068H217.045V407H223.75V395.068H231.705V388.818H223.75V348.818H215.227L189.659 389.273V395.068ZM217.045 388.818H197.273V388.364L216.591 357.795H217.045V388.818Z" fill="black"/>
<path d="M143.145 747H144.202V743.097H148.855V747H149.912V738.273H148.855V742.159H144.202V738.273H143.145V747ZM153.817 747.153C154.959 747.153 155.556 746.54 155.76 746.114H155.812V747H156.817V742.688C156.817 740.608 155.232 740.369 154.397 740.369C153.408 740.369 152.283 740.71 151.772 741.903L152.726 742.244C152.948 741.767 153.472 741.256 154.431 741.256C155.356 741.256 155.812 741.746 155.812 742.585V742.619C155.812 743.105 155.317 743.062 154.124 743.216C152.91 743.374 151.584 743.642 151.584 745.142C151.584 746.42 152.573 747.153 153.817 747.153ZM153.971 746.25C153.17 746.25 152.59 745.892 152.59 745.193C152.59 744.426 153.289 744.188 154.073 744.085C154.499 744.034 155.641 743.915 155.812 743.71V744.631C155.812 745.449 155.164 746.25 153.971 746.25ZM158.244 745.33C158.278 746.403 159.305 747.136 160.698 747.136C162.13 747.136 163.17 746.369 163.17 745.176C163.17 744.358 162.68 743.693 161.943 743.642V743.574C162.565 743.382 163.034 742.93 163.034 742.193C163.034 741.158 162.147 740.369 160.767 740.369C159.403 740.369 158.431 741.119 158.397 742.176H159.454C159.484 741.635 160.051 741.256 160.818 741.256C161.58 741.256 162.011 741.643 162.011 742.227C162.011 742.773 161.636 743.182 160.835 743.182H159.71V744.085H160.835C161.636 744.085 162.147 744.524 162.147 745.176C162.147 745.922 161.487 746.233 160.681 746.233C159.893 746.233 159.365 745.922 159.318 745.33H158.244ZM166.509 747.153C167.651 747.153 168.247 746.54 168.452 746.114H168.503V747H169.509V742.688C169.509 740.608 167.923 740.369 167.088 740.369C166.1 740.369 164.975 740.71 164.463 741.903L165.418 742.244C165.639 741.767 166.164 741.256 167.122 741.256C168.047 741.256 168.503 741.746 168.503 742.585V742.619C168.503 743.105 168.009 743.062 166.816 743.216C165.601 743.374 164.276 743.642 164.276 745.142C164.276 746.42 165.264 747.153 166.509 747.153ZM166.662 746.25C165.861 746.25 165.281 745.892 165.281 745.193C165.281 744.426 165.98 744.188 166.764 744.085C167.191 744.034 168.333 743.915 168.503 743.71V744.631C168.503 745.449 167.855 746.25 166.662 746.25ZM170.645 748.875H171.651V747H176.492V748.875H177.498V746.062H176.492V740.455H172.333L172.111 743.045C171.954 744.878 171.719 745.509 171.191 746.062H170.645V748.875ZM172.333 746.062C172.793 745.457 172.959 744.413 173.1 743.045L173.27 741.392H175.486V746.062H172.333Z" fill="#3456F3"/>
</g>
<defs>
<clipPath id="clip0_932_4497">
<rect width="320" height="780" fill="white"/>
</clipPath>
</defs>
</svg>
