<?xml version="1.0" encoding="UTF-8"?>
<!DOCTYPE svg PUBLIC "-//W3C//DTD SVG 1.1//EN" "http://www.w3.org/Graphics/SVG/1.1/DTD/svg11.dtd">
<svg xmlns="http://www.w3.org/2000/svg" version="1.1" width="8px" height="8px" style="shape-rendering:geometricPrecision; text-rendering:geometricPrecision; image-rendering:optimizeQuality; fill-rule:evenodd; clip-rule:evenodd" xmlns:xlink="http://www.w3.org/1999/xlink">
<g><path style="opacity:0.601" fill="#000000" d="M 0.5,-0.5 C 0.833333,-0.5 1.16667,-0.5 1.5,-0.5C 2.83333,2.16667 4.16667,2.16667 5.5,-0.5C 5.83333,-0.5 6.16667,-0.5 6.5,-0.5C 6.5,0.166667 6.83333,0.5 7.5,0.5C 7.5,0.833333 7.5,1.16667 7.5,1.5C 4.83333,2.83333 4.83333,4.16667 7.5,5.5C 7.5,5.83333 7.5,6.16667 7.5,6.5C 6.83333,6.5 6.5,6.83333 6.5,7.5C 6.16667,7.5 5.83333,7.5 5.5,7.5C 4.16667,4.83333 2.83333,4.83333 1.5,7.5C 1.16667,7.5 0.833333,7.5 0.5,7.5C 0.5,6.83333 0.166667,6.5 -0.5,6.5C -0.5,6.16667 -0.5,5.83333 -0.5,5.5C 2.16667,4.16667 2.16667,2.83333 -0.5,1.5C -0.5,1.16667 -0.5,0.833333 -0.5,0.5C 0.166667,0.5 0.5,0.166667 0.5,-0.5 Z"/></g>
</svg>
